<?xml version="1.0" standalone="no"?>
<!DOCTYPE svg PUBLIC "-//W3C//DTD SVG 1.1//EN" "http://www.w3.org/Graphics/SVG/1.1/DTD/svg11.dtd">
<svg class="icon" viewBox="0 0 1024 1024" version="1.1" xmlns="http://www.w3.org/2000/svg">
  <path d="M489.152 609.664l-14.112 45.152 39.52 283.936a1424.512 1424.512 0 0 0 58.272-247.136c-1.312 4.512-2.272 7.232-2.464 7.008-15.232-50.752-51.232-76.192-81.216-88.96zM446.848 594.784c-1.344 0.032-2.592 0.416-3.968 0.416h3.168c0.32-0.128 0.544-0.288 0.8-0.416zM315.552 696.064a1432.48 1432.48 0 0 0 56.544 239.616l40.544-280.864-15.68-45.664c-29.664 12.416-65.536 37.312-81.408 86.912z" fill="#e6e9ee" />
  <path d="M437.92 594.688l0.992 0.512h4c-1.728 0-3.296-0.448-4.992-0.512z" fill="#e6e9ee" />
  <path d="M437.92 594.688c1.696 0.064 3.264 0.512 4.992 0.512 1.344 0 2.624-0.352 3.968-0.416 108.64-53.792 115.2-120.928 114.56-140.512-0.48-3.072-0.864-6.112-1.536-9.088-32.768 39.328-73.12 65.376-116.96 65.376s-84.192-26.048-116.96-65.376a121.728 121.728 0 0 0-2.24 16.192c1.44 25.632 16.512 84.864 114.176 133.312z" fill="#f9b54c" />
  <path d="M442.912 595.2h-4c1.248 0.608 2.304 1.28 3.584 1.888 1.28-0.608 2.336-1.248 3.584-1.888h-3.168z" fill="#f1543f" />
  <path d="M442.496 597.088s-20.544 1.632-45.568 12.096l15.68 45.664 0.192-1.312h62.08l0.192 1.312 14.112-45.152c-25.536-10.912-46.688-12.608-46.688-12.608z" fill="#f1543f" />
  <path d="M514.56 938.752l-39.52-283.936-0.192-1.312H412.8l-0.192 1.312-40.544 280.864c9.312 28.32 19.872 57.376 31.776 87.008 12.896 0.8 25.984 1.312 39.072 1.312 13.728 0 27.456-0.48 40.96-1.376 11.488-28.576 21.632-56.544 30.688-83.872z" fill="#ff7058" />
  <path d="M823.744 610.24l-235.968-114.24c15.776 66.208-7.04 168.512-14.912 195.616a1428.16 1428.16 0 0 1-88.992 331.008 17.472 17.472 0 0 0-0.512 1.376 542.176 542.176 0 0 0 402.464-223.808l-62.08-189.952zM372.096 935.712a1432.48 1432.48 0 0 1-56.544-239.616c-0.288 0.896-0.672 1.664-0.928 2.56-1.472 1.472-34.304-124.256-16.896-201.568L62.048 610.24 0 800.192C94.048 926.208 238.848 1012.704 404.352 1024l-0.512-1.312a1431.552 1431.552 0 0 1-31.744-86.976z" fill="#00758f" />
  <path d="M446.848 594.784l-0.768 0.416c-1.248 0.608-2.304 1.28-3.584 1.888 0 0 21.152 1.728 46.656 12.576 29.952 12.768 65.984 38.208 81.216 88.96 0.224 0.224 1.152-2.496 2.464-7.008 7.872-27.104 30.688-129.408 14.912-195.616-4.832-20.288-13.088-37.312-26.784-47.488 0 0 0.32 2.176 0.448 5.76 0.64 19.584-5.92 86.72-114.56 140.512zM314.592 698.624c0.256-0.896 0.64-1.664 0.928-2.56 15.872-49.6 51.744-74.528 81.376-86.88 25.024-10.464 45.568-12.096 45.568-12.096-1.28-0.608-2.336-1.248-3.584-1.888l-0.992-0.512c-97.664-48.448-112.736-107.68-114.24-133.312a63.68 63.68 0 0 1 0.32-12.864c-13.536 10.336-21.6 27.808-26.304 48.544-17.376 77.312 15.456 203.072 16.928 201.568z" fill="#ffffff" />
  <path d="M442.912 510.56c43.84 0 84.192-26.048 116.96-65.376a312.48 312.48 0 0 0 32.992-48.416c3.392-11.712 7.904-26.336 13.824-44.192 0 0 39.488-114.72-78.976-131.648 0 0-112.832-15.04-122.24-39.488 0 0 7.52 41.376 60.192 48.896 0 0-116.608-1.888-152.352-43.264 0 0-48.896 163.616 22.56 253.888 0 0-20.544-16.448-44-46.016a313.28 313.28 0 0 0 34.048 50.208c32.768 39.36 73.152 65.408 116.992 65.408z" fill="#ffd05b" />
  <path d="M335.872 440.992c-71.456-90.272-22.56-253.92-22.56-253.92 35.744 41.376 152.352 43.264 152.352 43.264-52.672-7.52-60.192-48.896-60.192-48.896 9.408 24.448 122.24 39.488 122.24 39.488 118.496 16.928 78.976 131.648 78.976 131.648a1125.152 1125.152 0 0 0-13.824 44.192c-6.304 21.664-8.736 32.928-8.736 32.928 22.56-13.152 131.648-180.544 45.152-334.752C548.416-49.856 388.544 14.08 388.544 14.08 219.264-27.328 224.928 185.216 224.928 185.216c-8.992 93.184 32.224 166.016 66.976 209.76 23.456 29.568 43.968 46.016 43.968 46.016z" fill="#ab7939" />
  <path d="M1024 767.04l-144.8-30.592-73.792-128.256-73.824 128.256-144.768 30.592 99.168 109.792-15.68 147.168 135.104-60.384L940.512 1024l-15.68-147.168z" fill="#ffd05b" />
</svg>